{"glyphs":{"0":{"ha":1158,"x_min":79,"x_max":1061,"o":"m 282 1000 l 858 1000 q 1001 938 942 1000 q 1061 793 1061 876 l 1061 215 q 1001 66 1061 132 q 858 0 940 0 l 282 0 q 140 66 200 0 q 79 215 79 132 l 79 793 q 139 938 79 876 q 282 1000 199 1000 m 406 226 l 849 226 l 849 599 l 406 226 m 735 782 l 292 782 l 292 410 l 735 782 z "},"1":{"ha":543,"x_min":1,"x_max":542,"o":"m 1 619 l 321 1000 l 542 1000 l 542 0 l 329 0 l 329 676 l 326 674 l 328 674 l 283 619 l 1 619 z "},"2":{"ha":1153,"x_min":79,"x_max":1061,"o":"m 282 1000 l 858 1000 q 1001 941 942 1000 q 1061 799 1061 882 l 1061 578 q 1001 435 1061 494 q 858 375 942 375 l 292 375 l 292 213 l 1061 213 l 1061 0 l 79 0 l 79 388 q 139 530 79 471 q 282 589 199 589 l 849 589 l 849 788 l 292 788 l 292 707 l 79 707 l 79 799 q 139 941 79 882 q 282 1000 199 1000 z "},"3":{"ha":1147,"x_min":74,"x_max":1056,"o":"m 1018 799 l 1018 599 q 1010 535 1018 564 q 1056 408 1056 479 l 1056 201 q 997 60 1056 119 q 854 0 938 0 l 276 0 q 133 60 193 0 q 74 201 74 119 l 74 279 l 286 279 l 286 213 l 843 213 l 843 397 l 238 397 l 238 610 l 806 610 l 806 788 l 286 788 l 286 710 l 74 710 l 74 799 q 133 941 74 882 q 276 1000 193 1000 l 817 1000 q 959 941 900 1000 q 1018 799 1018 882 z "},"4":{"ha":1014,"x_min":8,"x_max":953,"o":"m 819 463 l 953 463 l 953 249 l 819 249 l 819 0 l 607 0 l 607 249 l 8 249 l 8 439 l 629 1000 l 819 1000 l 819 463 m 607 668 l 354 463 l 607 463 l 607 668 z "},"5":{"ha":1153,"x_min":79,"x_max":1061,"o":"m 1061 788 l 292 788 l 292 614 l 858 614 q 1001 555 942 614 q 1061 413 1061 496 l 1061 201 q 1001 60 1061 119 q 858 0 942 0 l 282 0 q 139 60 199 0 q 79 201 79 119 l 79 279 l 292 279 l 292 213 l 849 213 l 849 400 l 79 400 l 79 1000 l 1061 1000 l 1061 788 z "},"6":{"ha":1139,"x_min":79,"x_max":1061,"o":"m 910 788 l 292 788 l 292 614 l 858 614 q 1001 555 942 614 q 1061 413 1061 496 l 1061 201 q 1001 60 1061 119 q 858 0 942 0 l 282 0 q 139 60 199 0 q 79 201 79 119 l 79 799 q 139 941 79 882 q 282 1000 199 1000 l 910 1000 l 910 788 m 292 400 l 292 213 l 849 213 l 849 400 l 292 400 z "},"7":{"ha":917,"x_min":4,"x_max":835,"o":"m 4 1001 l 633 1001 q 776 942 717 1001 q 835 800 835 883 l 835 0 l 622 0 l 622 789 l 4 789 l 4 1001 z "},"8":{"ha":1158,"x_min":79,"x_max":1061,"o":"m 1061 835 l 1061 603 q 1038 507 1061 551 q 1061 413 1061 464 l 1061 201 q 1001 60 1061 119 q 858 0 942 0 l 282 0 q 139 60 199 0 q 79 201 79 119 l 79 413 q 103 507 79 457 q 79 603 79 557 l 79 799 q 139 941 79 882 q 282 1000 199 1000 l 858 1000 q 991 953 933 1000 q 1061 835 1049 906 m 292 400 l 292 213 l 849 213 l 849 400 l 292 400 m 292 786 l 292 600 l 849 600 l 849 786 l 292 786 z "},"9":{"ha":1150,"x_min":71,"x_max":1057,"o":"m 856 0 l 278 0 q 145 61 204 0 q 71 213 86 122 l 844 213 l 844 390 l 278 390 q 135 450 194 390 q 75 593 75 510 l 75 799 q 135 941 75 882 q 278 1000 194 1000 l 856 1000 q 998 941 939 1000 q 1057 799 1057 882 l 1057 201 q 998 60 1057 119 q 856 0 939 0 m 289 604 l 844 604 l 844 788 l 289 788 l 289 604 z "}," ":{"ha":447,"x_min":0,"x_max":0,"o":""},"!":{"ha":306,"x_min":81,"x_max":293,"o":"m 293 0 l 81 0 l 81 213 l 293 213 l 293 0 m 81 279 l 81 1000 l 293 1000 l 293 279 l 81 279 z "},"\"":{"ha":550,"x_min":50,"x_max":513,"o":"m 261 981 l 261 701 l 50 701 l 50 981 l 261 981 m 513 981 l 513 701 l 301 701 l 301 981 l 513 981 z "},"#":{"ha":1107,"x_min":44,"x_max":1042,"o":"m 1042 792 l 1042 579 l 882 579 l 835 432 l 1003 432 l 1003 219 l 765 219 q 735 110 756 186 q 703 0 714 33 l 488 0 l 554 219 l 360 219 q 327 104 349 182 q 299 0 306 26 l 83 0 l 149 219 l 44 219 l 44 432 l 213 432 l 260 579 l 83 579 l 83 792 l 328 792 q 394 1000 346 842 l 614 1000 l 543 792 l 735 792 l 801 1000 l 1019 1000 l 949 792 l 1042 792 m 429 432 l 618 432 l 665 579 l 476 579 l 429 432 z "},"$":{"ha":1094,"x_min":47,"x_max":1028,"o":"m 1028 799 l 1028 707 l 815 707 l 815 788 l 644 788 l 644 601 l 826 601 q 969 542 910 601 q 1028 399 1028 482 l 1028 201 q 969 60 1028 119 q 826 0 910 0 l 644 0 l 644 -136 l 431 -136 l 431 0 l 249 0 q 106 60 165 0 q 47 201 47 119 l 47 293 l 260 293 l 260 213 l 431 213 l 431 389 l 249 389 q 106 448 165 389 q 47 590 47 507 l 47 799 q 106 941 47 882 q 249 1000 165 1000 l 431 1000 l 431 1136 l 644 1136 l 644 1000 l 826 1000 q 969 941 910 1000 q 1028 799 1028 882 m 431 601 l 431 788 l 260 788 l 260 601 l 431 601 m 644 389 l 644 213 l 815 213 l 815 389 l 644 389 z "},"%":{"ha":1342,"x_min":67,"x_max":1263,"o":"m 1097 999 l 1168 999 l 1168 782 l 257 0 l 186 0 l 186 218 l 1097 999 m 256 989 l 368 989 q 504 937 451 989 q 557 801 557 885 l 557 701 q 504 565 557 618 q 368 513 451 513 l 256 513 q 119 565 172 513 q 67 701 67 618 l 67 801 q 119 937 67 885 q 256 989 172 989 m 961 489 l 1074 489 q 1210 437 1157 489 q 1263 301 1263 385 l 1263 201 q 1210 65 1263 118 q 1074 13 1157 13 l 961 13 q 826 65 879 13 q 774 201 774 118 l 774 301 q 826 437 774 385 q 961 489 879 489 m 947 315 l 947 186 l 1089 186 l 1089 315 l 947 315 m 240 815 l 240 688 l 382 688 l 382 815 l 240 815 z "},"&":{"ha":1303,"x_min":74,"x_max":1214,"o":"m 1054 289 l 1214 194 l 1214 -25 l 1019 86 q 853 0 957 0 l 275 0 q 133 60 192 0 q 74 201 74 119 l 74 458 q 89 522 74 489 q 133 575 104 556 q 124 649 124 599 l 124 797 q 183 940 124 881 q 325 999 243 999 l 815 999 q 947 951 889 999 q 1017 833 1004 904 l 1017 711 l 804 711 l 804 785 l 336 785 l 336 635 l 842 381 l 842 513 l 1054 513 l 1054 289 m 600 285 l 286 443 l 286 213 l 744 213 q 675 247 724 224 q 600 285 626 271 z "},"'":{"ha":349,"x_min":82,"x_max":294,"o":"m 294 981 l 294 700 l 82 700 l 82 981 l 294 981 z "},"(":{"ha":408,"x_min":72,"x_max":365,"o":"m 365 788 l 285 788 l 285 213 l 365 213 l 365 0 l 274 0 q 131 60 190 0 q 72 201 72 119 l 72 799 q 131 941 72 882 q 274 1000 190 1000 l 365 1000 l 365 788 z "},")":{"ha":413,"x_min":78,"x_max":372,"o":"m 78 0 l 78 213 l 158 213 l 158 788 l 78 788 l 78 1000 l 171 1000 q 313 941 253 1000 q 372 799 372 882 l 372 201 q 313 60 372 119 q 171 0 253 0 l 78 0 z "},"*":{"ha":717,"x_min":35,"x_max":683,"o":"m 618 871 l 683 665 l 531 617 l 626 488 l 456 363 l 357 492 l 265 363 l 92 488 l 188 617 l 35 665 l 100 871 l 251 819 l 251 981 l 465 981 l 465 819 q 618 871 479 824 z "},"+":{"ha":632,"x_min":24,"x_max":603,"o":"m 204 699 l 417 699 l 417 517 l 603 517 l 603 304 l 417 304 l 417 119 l 204 119 l 204 304 l 24 304 l 24 517 l 204 517 l 204 699 z "},",":{"ha":338,"x_min":75,"x_max":288,"o":"m 75 197 l 288 197 l 288 22 q 227 -111 288 -53 q 75 -185 167 -169 l 75 197 z "},"-":{"ha":718,"x_min":82,"x_max":661,"o":"m 661 517 l 661 304 l 82 304 l 82 517 l 661 517 z "},".":{"ha":324,"x_min":75,"x_max":288,"o":"m 288 213 l 288 0 l 75 0 l 75 213 l 288 213 z "},"/":{"ha":724,"x_min":8,"x_max":725,"o":"m 8 215 l 649 1000 l 725 1000 l 725 786 l 85 0 l 8 0 l 8 215 z "},":":{"ha":343,"x_min":75,"x_max":288,"o":"m 75 213 l 288 213 l 288 0 l 75 0 l 75 213 m 288 806 l 288 592 l 75 592 l 75 806 l 288 806 z "},";":{"ha":369,"x_min":71,"x_max":285,"o":"m 285 806 l 285 592 l 71 592 l 71 806 l 285 806 m 72 197 l 285 197 l 285 22 q 224 -111 285 -53 q 72 -185 164 -169 l 72 197 z "},"<":{"ha":657,"x_min":7,"x_max":600,"o":"m 275 411 l 600 222 l 600 -24 l 7 321 l 7 499 l 600 843 l 600 599 l 275 411 z "},"=":{"ha":886,"x_min":82,"x_max":813,"o":"m 813 392 l 813 179 l 82 179 l 82 392 l 813 392 m 813 672 l 813 460 l 82 460 l 82 672 l 813 672 z "},">":{"ha":660,"x_min":82,"x_max":676,"o":"m 82 -26 l 82 221 l 406 408 l 228 508 q 156 551 207 519 q 82 594 106 582 l 82 840 l 676 497 l 676 318 l 82 -26 z "},"?":{"ha":942,"x_min":43,"x_max":907,"o":"m 43 1000 l 704 1000 q 848 941 789 1000 q 907 799 907 882 l 907 568 q 848 425 907 485 q 704 365 789 365 l 392 365 l 392 269 l 178 269 l 178 378 q 237 520 178 461 q 379 579 296 579 l 694 579 l 694 788 l 43 788 l 43 1000 m 392 0 l 178 0 l 178 213 l 392 213 l 392 0 z "},"@":{"ha":1154,"x_min":79,"x_max":1061,"o":"m 528 721 l 614 721 q 742 676 697 721 q 788 547 788 631 l 788 460 l 849 460 l 849 788 l 292 788 l 292 213 l 1061 213 l 1061 0 l 282 0 q 139 60 199 0 q 79 201 79 119 l 79 799 q 139 941 79 882 q 282 1000 199 1000 l 858 1000 q 1001 941 942 1000 q 1061 799 1061 882 l 1061 300 l 528 300 q 399 345 444 300 q 353 474 353 390 l 353 547 q 399 676 353 631 q 528 721 444 721 m 500 460 l 640 460 l 640 574 l 500 574 l 500 460 z "},"A":{"ha":1161,"x_min":81,"x_max":1081,"o":"m 286 1000 l 874 1000 q 1020 940 960 1000 q 1081 794 1081 879 l 1081 0 l 863 0 l 863 322 l 296 322 l 296 0 l 81 0 l 81 794 q 140 940 81 881 q 286 1000 200 1000 m 296 539 l 863 539 l 863 783 l 296 783 l 296 539 z "},"B":{"ha":1156,"x_min":82,"x_max":1082,"o":"m 1043 794 l 1043 607 q 1033 543 1043 568 q 1082 413 1082 482 l 1082 206 q 1022 60 1082 121 q 875 0 961 0 l 82 0 l 82 1000 l 838 1000 q 983 940 922 1000 q 1043 794 1043 879 m 297 400 l 297 217 l 864 217 l 864 400 l 297 400 m 297 783 l 297 617 l 825 617 l 825 783 l 297 783 z "},"C":{"ha":1142,"x_min":78,"x_max":1075,"o":"m 1075 783 l 293 783 l 293 217 l 1075 217 l 1075 0 l 283 0 q 138 60 197 0 q 78 206 78 119 l 78 794 q 138 940 78 881 q 283 1000 197 1000 l 1075 1000 l 1075 783 z "},"D":{"ha":1158,"x_min":81,"x_max":1081,"o":"m 81 1000 l 874 1000 q 1020 940 960 1000 q 1081 794 1081 879 l 1081 206 q 1020 60 1081 121 q 874 0 960 0 l 81 0 l 81 1000 m 296 783 l 296 217 l 863 217 l 863 783 l 296 783 z "},"E":{"ha":1064,"x_min":81,"x_max":1004,"o":"m 1004 1000 l 1004 783 l 299 783 l 299 608 l 867 608 l 867 392 l 299 392 l 299 217 l 1004 217 l 1004 0 l 81 0 l 81 1000 l 1004 1000 z "},"F":{"ha":1004,"x_min":81,"x_max":1004,"o":"m 81 1000 l 1004 1000 l 1004 783 l 299 783 l 299 608 l 867 608 l 867 392 l 299 392 l 299 0 l 81 0 l 81 1000 z "},"G":{"ha":1153,"x_min":78,"x_max":1078,"o":"m 1078 794 l 1078 700 l 860 700 l 860 783 l 293 783 l 293 217 l 860 217 l 860 367 l 643 367 l 643 583 l 1078 583 l 1078 206 q 1017 60 1078 121 q 871 0 957 0 l 283 0 q 138 60 197 0 q 78 206 78 119 l 78 794 q 138 940 78 881 q 283 1000 197 1000 l 871 1000 q 1017 940 957 1000 q 1078 794 1078 879 z "},"H":{"ha":1182,"x_min":79,"x_max":1100,"o":"m 885 1000 l 1100 1000 l 1100 0 l 885 0 l 885 392 l 294 392 l 294 0 l 79 0 l 79 1000 l 294 1000 l 294 608 l 885 608 l 885 1000 z "},"I":{"ha":306,"x_min":79,"x_max":296,"o":"m 79 0 l 79 1000 l 296 1000 l 296 0 l 79 0 z "},"J":{"ha":1083,"x_min":6,"x_max":1006,"o":"m 221 335 l 221 217 l 788 217 l 788 1000 l 1006 1000 l 1006 206 q 945 60 1006 121 q 800 0 885 0 l 211 0 q 65 60 125 0 q 6 206 6 119 l 6 335 l 221 335 z "},"K":{"ha":1107,"x_min":79,"x_max":1044,"o":"m 819 1000 l 1044 1000 l 1044 925 l 688 500 l 1044 75 l 1044 0 l 819 0 l 492 392 l 296 392 l 296 0 l 79 0 l 79 1000 l 296 1000 l 296 608 l 492 608 l 617 757 l 819 1000 z "},"L":{"ha":1082,"x_min":79,"x_max":1079,"o":"m 79 0 l 79 1001 l 294 1001 l 294 217 l 1079 217 l 1079 0 l 79 0 z "},"M":{"ha":1289,"x_min":78,"x_max":1200,"o":"m 639 596 l 976 1000 l 1200 1000 l 1200 0 l 983 0 l 983 671 l 639 260 l 293 669 l 293 0 l 78 0 l 78 1000 l 300 1000 l 639 596 z "},"N":{"ha":1156,"x_min":78,"x_max":1078,"o":"m 860 333 l 860 1000 l 1078 1000 l 1078 0 l 856 0 l 293 669 l 293 0 l 78 0 l 78 1000 l 300 1000 l 860 333 z "},"O":{"ha":1150,"x_min":75,"x_max":1075,"o":"m 281 1000 l 869 1000 q 1015 940 954 1000 q 1075 794 1075 879 l 1075 206 q 1015 60 1075 121 q 869 0 954 0 l 281 0 q 135 60 194 0 q 75 206 75 119 l 75 794 q 135 940 75 881 q 281 1000 194 1000 m 290 783 l 290 217 l 857 217 l 857 783 l 290 783 z "},"P":{"ha":1099,"x_min":78,"x_max":1078,"o":"m 78 999 l 871 999 q 1017 938 956 999 q 1078 793 1078 878 l 1078 535 q 1017 390 1078 450 q 871 329 956 329 l 293 328 q 297 319 297 328 q 293 321 294 319 l 293 0 l 78 0 l 78 999 m 293 783 l 293 546 l 860 546 l 860 783 l 293 783 z "},"Q":{"ha":1228,"x_min":75,"x_max":1189,"o":"m 1075 794 l 1075 217 l 1189 217 l 1189 0 l 281 0 q 135 60 194 0 q 75 206 75 119 l 75 794 q 135 940 75 881 q 281 1000 194 1000 l 868 1000 q 1015 940 954 1000 q 1075 794 1075 879 m 290 783 l 290 217 l 857 217 l 857 783 l 290 783 z "},"R":{"ha":1146,"x_min":76,"x_max":1076,"o":"m 1076 793 l 1076 535 q 1015 390 1076 450 q 869 329 954 329 l 860 329 l 1076 74 l 1076 0 l 854 0 l 578 329 l 292 328 q 296 319 296 328 q 292 321 293 319 l 292 0 l 76 0 l 76 999 l 869 999 q 1015 938 954 999 q 1076 793 1076 878 m 292 783 l 292 546 l 858 546 l 858 783 l 292 783 z "},"S":{"ha":1142,"x_min":71,"x_max":1071,"o":"m 1071 794 l 1071 701 l 853 701 l 853 783 l 286 783 l 286 608 l 865 608 q 1010 548 950 608 q 1071 403 1071 488 l 1071 206 q 1010 60 1071 121 q 865 0 950 0 l 276 0 q 131 60 192 0 q 71 206 71 119 l 71 299 l 286 299 l 286 217 l 853 217 l 853 392 l 276 392 q 131 451 192 392 q 71 597 71 511 l 71 794 q 131 940 71 881 q 276 1000 192 1000 l 865 1000 q 1010 940 950 1000 q 1071 794 1071 879 z "},"T":{"ha":1054,"x_min":28,"x_max":1028,"o":"m 28 1000 l 1028 1000 l 1028 783 l 636 783 l 636 0 l 419 0 l 419 783 l 28 783 l 28 1000 z "},"U":{"ha":1150,"x_min":75,"x_max":1075,"o":"m 290 1000 l 290 217 l 857 217 l 857 1000 l 1075 1000 l 1075 206 q 1015 60 1075 121 q 869 0 954 0 l 281 0 q 135 60 194 0 q 75 206 75 119 l 75 1000 l 290 1000 z "},"V":{"ha":1393,"x_min":49,"x_max":1386,"o":"m 718 274 l 1138 1000 l 1386 1000 l 807 0 l 628 0 l 49 1000 l 299 1000 l 718 274 z "},"W":{"ha":1638,"x_min":49,"x_max":1578,"o":"m 1350 1000 l 1578 1000 l 1214 0 l 1049 0 l 813 643 l 724 399 l 578 0 l 413 0 l 49 1000 l 278 1000 l 496 404 l 531 497 l 714 1000 l 913 1000 l 1132 404 l 1167 497 l 1350 1000 z "},"X":{"ha":1128,"x_min":64,"x_max":1064,"o":"m 840 1000 l 1064 1000 l 1064 926 l 706 500 l 1064 75 l 1064 0 l 840 0 l 563 328 l 288 0 l 64 0 l 64 74 l 421 500 l 64 926 l 64 1000 l 288 1000 l 565 671 q 704 838 606 722 q 840 1000 803 954 z "},"Y":{"ha":1119,"x_min":24,"x_max":1167,"o":"m 907 1000 l 1167 1000 l 703 372 l 703 0 l 486 0 l 486 374 l 304 618 l 24 1000 l 281 1000 l 594 606 l 907 1000 z "},"Z":{"ha":1140,"x_min":71,"x_max":1071,"o":"m 71 783 l 71 1000 l 1071 1000 l 1071 779 l 401 217 l 1071 217 l 1071 0 l 71 0 l 71 221 l 740 783 l 71 783 z "},"[":{"ha":382,"x_min":75,"x_max":368,"o":"m 75 0 l 75 1000 l 368 1000 l 368 788 l 288 788 l 288 213 l 368 213 l 368 0 l 75 0 z "},"\\":{"ha":722,"x_min":7,"x_max":724,"o":"m 7 1000 l 83 1000 l 724 214 l 724 0 l 647 0 l 7 786 l 7 1000 z "},"]":{"ha":383,"x_min":71,"x_max":364,"o":"m 71 788 l 71 1000 l 364 1000 l 364 0 l 71 0 l 71 213 l 150 213 l 150 788 l 71 788 z "},"_":{"ha":1150,"x_min":75,"x_max":1057,"o":"m 1057 -3 l 1057 -215 l 75 -215 l 75 -3 l 1057 -3 z "},"`":{"ha":378,"x_min":44,"x_max":333,"o":"m 263 1319 l 333 1038 l 115 1038 l 44 1319 l 263 1319 z "},"a":{"ha":964,"x_min":72,"x_max":889,"o":"m 688 806 q 830 746 771 806 q 889 604 889 686 l 889 0 l 274 0 q 131 60 190 0 q 72 201 72 119 l 72 510 l 676 510 l 676 593 l 72 593 l 72 806 l 688 806 m 676 213 l 676 324 l 285 324 l 285 213 l 676 213 z "},"b":{"ha":926,"x_min":75,"x_max":892,"o":"m 690 806 q 833 746 774 806 q 892 604 892 686 l 892 201 q 833 60 892 119 q 690 0 774 0 l 75 0 l 75 1069 l 288 1069 l 288 806 l 690 806 m 288 593 l 288 213 l 679 213 l 679 593 l 288 593 z "},"c":{"ha":965,"x_min":71,"x_max":888,"o":"m 886 593 l 283 593 l 283 213 l 888 213 l 888 0 l 272 0 q 131 60 190 0 q 71 201 71 119 l 71 604 q 131 746 71 686 q 272 806 190 806 l 886 806 l 886 593 z "},"d":{"ha":926,"x_min":32,"x_max":850,"o":"m 638 1069 l 850 1069 l 850 0 l 233 0 q 91 60 150 0 q 32 201 32 119 l 32 604 q 91 746 32 686 q 233 806 150 806 l 638 806 l 638 1069 m 246 593 l 246 213 l 638 213 l 638 593 l 246 593 z "},"e":{"ha":961,"x_min":71,"x_max":888,"o":"m 686 806 q 828 746 769 806 q 888 604 888 686 l 888 296 l 283 296 l 283 213 l 888 213 l 888 0 l 272 0 q 131 60 190 0 q 71 201 71 119 l 71 604 q 131 746 71 686 q 272 806 190 806 l 686 806 m 283 482 l 675 482 l 675 593 l 283 593 l 283 482 z "},"f":{"ha":611,"x_min":74,"x_max":585,"o":"m 585 856 l 286 856 l 286 806 l 585 806 l 585 593 l 286 593 l 286 0 l 74 0 l 74 868 q 133 1010 74 950 q 276 1069 192 1069 l 585 1069 l 585 856 z "},"g":{"ha":949,"x_min":57,"x_max":875,"o":"m 875 -117 q 816 -259 875 -200 q 674 -318 757 -318 l 185 -318 l 185 -104 l 663 -104 l 663 0 l 260 0 q 117 60 176 0 q 57 201 57 119 l 57 604 q 117 746 57 686 q 260 806 176 806 l 674 806 q 816 746 757 806 q 875 604 875 686 l 875 -117 m 269 593 l 269 213 l 663 213 l 663 593 l 269 593 z "},"h":{"ha":928,"x_min":75,"x_max":892,"o":"m 690 806 q 832 746 772 806 q 892 604 892 686 l 892 0 l 679 0 l 679 593 l 288 593 l 288 0 l 75 0 l 75 1069 l 288 1069 l 288 806 l 690 806 z "},"i":{"ha":318,"x_min":72,"x_max":285,"o":"m 72 0 l 72 806 l 285 806 l 285 0 l 72 0 m 72 1069 l 285 1069 l 285 856 l 72 856 l 72 1069 z "},"j":{"ha":332,"x_min":-260,"x_max":293,"o":"m 81 1069 l 293 1069 l 293 856 l 81 856 l 81 1069 m 293 806 l 293 -87 q 233 -230 293 -171 q 90 -289 174 -289 l -260 -289 l -260 -75 l 81 -75 l 81 806 l 293 806 z "},"k":{"ha":897,"x_min":75,"x_max":883,"o":"m 669 806 l 883 806 l 883 733 l 583 403 l 883 72 l 883 0 l 669 0 l 396 296 l 288 296 l 288 0 l 75 0 l 75 1069 l 288 1069 l 288 510 l 396 510 l 669 806 z "},"l":{"ha":468,"x_min":72,"x_max":449,"o":"m 72 1071 l 286 1071 l 286 213 l 449 213 l 449 0 l 274 0 q 132 60 192 0 q 72 201 72 119 l 72 1071 z "},"m":{"ha":1358,"x_min":75,"x_max":1246,"o":"m 1044 806 q 1187 746 1128 806 q 1246 604 1246 686 l 1246 0 l 1035 0 l 1035 593 l 768 593 l 768 0 l 554 0 l 554 593 l 288 593 l 288 0 l 75 0 l 75 806 l 1044 806 z "},"n":{"ha":967,"x_min":75,"x_max":892,"o":"m 690 806 q 833 746 774 806 q 892 604 892 686 l 892 0 l 679 0 l 679 593 l 288 593 l 288 0 l 75 0 l 75 806 l 690 806 z "},"o":{"ha":961,"x_min":71,"x_max":888,"o":"m 272 806 l 686 806 q 828 746 769 806 q 888 604 888 686 l 888 201 q 828 60 888 119 q 686 0 769 0 l 272 0 q 131 60 190 0 q 71 201 71 119 l 71 604 q 131 746 71 686 q 272 806 190 806 m 283 593 l 283 213 l 675 213 l 675 593 l 283 593 z "},"p":{"ha":922,"x_min":75,"x_max":892,"o":"m 690 806 q 833 746 774 806 q 892 604 892 686 l 892 201 q 833 60 892 119 q 690 0 774 0 l 288 0 l 288 -319 l 75 -319 l 75 806 l 690 806 m 288 593 l 288 213 l 679 213 l 679 593 l 288 593 z "},"q":{"ha":922,"x_min":28,"x_max":846,"o":"m 28 604 q 87 746 28 686 q 229 806 146 806 l 846 806 l 846 -319 l 633 -319 l 633 0 l 229 0 q 87 60 146 0 q 28 201 28 119 l 28 604 m 242 593 l 242 213 l 633 213 l 633 593 l 242 593 z "},"r":{"ha":731,"x_min":72,"x_max":719,"o":"m 275 806 l 719 806 l 719 593 l 285 593 l 285 0 l 72 0 l 72 604 q 132 746 72 686 q 275 806 192 806 z "},"s":{"ha":953,"x_min":67,"x_max":885,"o":"m 885 604 l 885 564 l 671 564 l 671 593 l 279 593 l 279 510 l 682 510 q 826 451 767 510 q 885 308 885 392 l 885 201 q 826 60 885 119 q 682 0 767 0 l 268 0 q 126 60 186 0 q 67 201 67 119 l 67 242 l 279 242 l 279 213 l 671 213 l 671 296 l 268 296 q 126 356 186 296 q 67 497 67 415 l 67 604 q 126 746 67 686 q 268 806 186 806 l 682 806 q 826 746 767 806 q 885 604 885 686 z "},"t":{"ha":626,"x_min":74,"x_max":585,"o":"m 585 593 l 286 593 l 286 213 l 585 213 l 585 0 l 276 0 q 133 60 192 0 q 74 201 74 119 l 74 1044 l 286 1044 l 286 806 l 585 806 l 585 593 z "},"u":{"ha":965,"x_min":74,"x_max":890,"o":"m 678 806 l 890 806 l 890 201 q 831 60 890 119 q 689 0 772 0 l 275 0 q 133 60 192 0 q 74 201 74 119 l 74 806 l 286 806 l 286 213 l 678 213 l 678 806 z "},"v":{"ha":1097,"x_min":29,"x_max":1099,"o":"m 854 806 l 1099 806 l 654 0 l 472 0 l 29 806 l 274 806 l 564 271 l 854 806 z "},"w":{"ha":1463,"x_min":49,"x_max":1415,"o":"m 1190 806 l 1415 806 l 1113 0 l 951 0 l 733 481 l 525 0 l 365 0 l 49 806 l 274 806 l 447 388 l 507 526 q 565 657 521 558 q 629 806 608 756 l 835 806 l 1029 382 l 1190 806 z "},"x":{"ha":961,"x_min":64,"x_max":894,"o":"m 675 806 l 894 806 l 894 736 l 617 410 l 769 224 l 894 69 l 894 0 l 676 0 l 479 242 l 282 0 l 64 0 l 64 69 l 342 410 l 64 736 l 64 806 l 282 806 l 479 572 l 675 806 z "},"y":{"ha":951,"x_min":58,"x_max":876,"o":"m 876 -87 q 817 -230 876 -171 q 675 -289 758 -289 l 186 -289 l 186 -75 l 664 -75 l 664 0 l 261 0 q 118 60 178 0 q 58 201 58 119 l 58 803 l 271 803 l 271 213 l 664 213 l 664 803 l 876 803 l 876 -87 z "},"z":{"ha":969,"x_min":75,"x_max":892,"o":"m 75 593 l 75 806 l 892 806 l 892 588 l 407 213 l 892 213 l 892 0 l 75 0 l 75 218 l 560 593 l 75 593 z "},"{":{"ha":401,"x_min":32,"x_max":381,"o":"m 300 460 l 300 213 l 381 213 l 381 0 l 290 0 q 147 60 206 0 q 88 201 88 119 l 88 389 l 65 403 l 67 403 q 49 412 63 404 q 32 421 36 419 l 32 603 l 88 633 l 88 799 q 147 941 88 882 q 290 1000 206 1000 l 381 1000 l 381 788 l 300 788 l 300 564 l 238 511 l 269 483 l 269 485 l 300 460 z "},"|":{"ha":297,"x_min":75,"x_max":288,"o":"m 75 -137 l 75 1117 l 288 1117 l 288 -137 l 75 -137 z "},"}":{"ha":401,"x_min":71,"x_max":419,"o":"m 71 0 l 71 213 l 151 213 l 151 458 l 214 511 l 151 564 l 151 788 l 71 788 l 71 1000 l 161 1000 q 304 941 244 1000 q 364 799 364 882 l 364 635 l 419 601 l 419 424 l 364 389 l 364 201 q 304 60 364 119 q 161 0 244 0 l 71 0 z "},"~":{"ha":561,"x_min":33,"x_max":554,"o":"m 421 451 q 554 501 476 451 l 554 326 q 417 292 471 292 q 285 334 367 292 q 157 376 204 376 q 33 322 104 376 l 33 506 q 165 538 107 538 q 299 498 218 538 q 421 451 381 458 z "},"¡":{"ha":292,"x_min":74,"x_max":286,"o":"m 286 981 l 286 768 l 74 768 l 74 981 l 286 981 m 286 0 l 74 0 l 74 731 l 286 731 l 286 0 z "},"¢":{"ha":883,"x_min":46,"x_max":863,"o":"m 863 604 l 618 604 l 618 213 l 863 213 l 863 0 l 618 0 l 618 -137 l 404 -137 l 404 0 l 249 0 q 106 60 165 0 q 46 201 46 119 l 46 617 q 106 760 46 700 q 249 819 165 819 l 404 819 l 404 979 l 618 979 l 618 819 l 863 819 l 863 604 m 404 213 l 404 604 l 258 604 l 258 213 l 404 213 z "},"£":{"ha":1019,"x_min":54,"x_max":944,"o":"m 944 721 l 731 721 l 731 788 l 392 788 l 392 597 l 811 597 l 811 385 l 392 385 l 392 213 l 944 213 l 944 0 l 54 0 l 54 213 l 179 213 l 179 385 l 54 385 l 54 597 l 179 597 l 179 799 q 239 941 179 882 q 381 1000 299 1000 l 743 1000 q 885 941 826 1000 q 944 799 944 882 l 944 721 z "},"¨":{"ha":535,"x_min":75,"x_max":585,"o":"m 585 1251 l 585 1038 l 371 1038 l 371 1251 l 585 1251 m 288 1251 l 288 1038 l 75 1038 l 75 1251 l 288 1251 z "},"°":{"ha":610,"x_min":63,"x_max":579,"o":"m 265 981 l 378 981 q 519 922 460 981 q 579 779 579 863 l 579 679 q 519 536 579 596 q 378 476 460 476 l 265 476 q 122 536 182 476 q 63 679 63 596 l 63 779 q 122 922 63 863 q 265 981 182 981 m 250 793 l 250 665 l 392 665 l 392 793 l 250 793 z "},"´":{"ha":296,"x_min":46,"x_max":335,"o":"m 46 1038 l 117 1319 l 335 1319 l 264 1038 l 46 1038 z "},"¶":{"ha":1157,"x_min":78,"x_max":1088,"o":"m 78 778 q 138 920 78 860 q 281 981 197 981 l 1088 981 l 1088 0 l 875 0 l 875 322 l 783 322 l 783 0 l 569 0 l 569 322 l 281 322 q 138 382 197 322 q 78 524 78 442 l 78 778 m 569 767 l 290 767 l 290 536 l 569 536 l 569 767 m 783 767 l 783 536 l 875 536 l 875 767 l 783 767 z "},"¸":{"ha":296,"x_min":46,"x_max":335,"o":"m 46 -203 l 117 78 l 335 78 l 264 -203 l 46 -203 z "},"¿":{"ha":938,"x_min":26,"x_max":892,"o":"m 892 0 l 229 0 q 86 60 146 0 q 26 201 26 119 l 26 433 q 86 576 26 517 q 229 635 146 635 l 543 635 l 543 739 l 756 739 l 756 624 q 696 481 756 540 q 553 421 636 421 l 239 421 l 239 213 l 892 213 l 892 0 m 756 981 l 756 768 l 543 768 l 543 981 l 756 981 z "},"À":{"ha":1161,"x_min":81,"x_max":1081,"o":"m 286 1000 l 874 1000 q 1020 940 960 1000 q 1081 794 1081 879 l 1081 0 l 863 0 l 863 322 l 296 322 l 296 0 l 81 0 l 81 794 q 140 940 81 881 q 286 1000 200 1000 m 296 539 l 863 539 l 863 783 l 296 783 l 296 539 m 626 1351 l 697 1069 l 479 1069 l 408 1351 l 626 1351 z "},"Á":{"ha":1161,"x_min":81,"x_max":1081,"o":"m 286 1000 l 874 1000 q 1020 940 960 1000 q 1081 794 1081 879 l 1081 0 l 863 0 l 863 322 l 296 322 l 296 0 l 81 0 l 81 794 q 140 940 81 881 q 286 1000 200 1000 m 296 539 l 863 539 l 863 783 l 296 783 l 296 539 m 464 1068 l 535 1350 l 753 1350 l 682 1068 l 464 1068 z "},"Â":{"ha":1161,"x_min":81,"x_max":1081,"o":"m 286 1000 l 874 1000 q 1020 940 960 1000 q 1081 794 1081 879 l 1081 0 l 863 0 l 863 322 l 296 322 l 296 0 l 81 0 l 81 794 q 140 940 81 881 q 286 1000 200 1000 m 296 539 l 863 539 l 863 783 l 296 783 l 296 539 m 554 1068 l 369 1068 l 522 1324 l 661 1324 l 814 1068 l 628 1068 l 589 1129 l 554 1068 z "},"Ã":{"ha":1161,"x_min":81,"x_max":1081,"o":"m 286 1000 l 874 1000 q 1020 940 960 1000 q 1081 794 1081 879 l 1081 0 l 863 0 l 863 322 l 296 322 l 296 0 l 81 0 l 81 794 q 140 940 81 881 q 286 1000 200 1000 m 296 539 l 863 539 l 863 783 l 296 783 l 296 539 m 668 1235 q 801 1286 722 1235 l 801 1111 q 664 1075 715 1075 q 533 1118 613 1075 q 413 1161 453 1161 l 397 1161 q 281 1111 339 1161 l 281 1283 q 413 1321 375 1321 q 544 1281 464 1321 q 668 1235 625 1240 z "},"Ä":{"ha":1161,"x_min":81,"x_max":1081,"o":"m 286 1000 l 874 1000 q 1020 940 960 1000 q 1081 794 1081 879 l 1081 0 l 863 0 l 863 322 l 296 322 l 296 0 l 81 0 l 81 794 q 140 940 81 881 q 286 1000 200 1000 m 296 539 l 863 539 l 863 783 l 296 783 l 296 539 m 842 1283 l 842 1069 l 628 1069 l 628 1283 l 842 1283 m 544 1283 l 544 1069 l 332 1069 l 332 1283 l 544 1283 z "},"Å":{"ha":1161,"x_min":81,"x_max":1081,"o":"m 286 1000 l 874 1000 q 1020 940 960 1000 q 1081 794 1081 879 l 1081 0 l 863 0 l 863 322 l 296 322 l 296 0 l 81 0 l 81 794 q 140 940 81 881 q 286 1000 200 1000 m 296 539 l 863 539 l 863 783 l 296 783 l 296 539 m 524 1350 l 594 1350 q 669 1319 638 1350 q 700 1244 700 1288 l 700 1176 q 669 1102 700 1133 q 594 1071 638 1071 l 524 1071 q 449 1102 481 1071 q 417 1176 417 1133 l 417 1244 q 449 1319 417 1288 q 524 1350 481 1350 m 524 1242 l 524 1167 l 594 1167 l 594 1242 l 524 1242 z "},"Æ":{"ha":1910,"x_min":75,"x_max":1782,"o":"m 1075 783 l 1075 608 l 1643 608 l 1643 392 l 1075 392 l 1075 217 l 1782 217 l 1782 0 l 860 0 l 860 322 l 293 322 l 293 0 l 75 0 l 75 794 q 135 940 75 879 q 281 1000 196 1000 l 1782 1000 l 1782 783 l 1075 783 m 860 539 l 860 783 l 293 783 l 293 539 l 860 539 z "},"Ç":{"ha":1142,"x_min":78,"x_max":1075,"o":"m 1075 783 l 293 783 l 293 217 l 1075 217 l 1075 0 l 738 0 l 672 -217 l 454 -217 l 519 0 l 283 0 q 138 60 197 0 q 78 206 78 119 l 78 794 q 138 940 78 881 q 283 1000 197 1000 l 1075 1000 l 1075 783 z "},"È":{"ha":1064,"x_min":81,"x_max":1004,"o":"m 1004 1000 l 1004 783 l 299 783 l 299 608 l 867 608 l 867 392 l 299 392 l 299 217 l 1004 217 l 1004 0 l 81 0 l 81 1000 l 1004 1000 m 606 1351 l 676 1069 l 458 1069 l 388 1351 l 606 1351 z "},"É":{"ha":1064,"x_min":81,"x_max":1004,"o":"m 1004 1000 l 1004 783 l 299 783 l 299 608 l 867 608 l 867 392 l 299 392 l 299 217 l 1004 217 l 1004 0 l 81 0 l 81 1000 l 1004 1000 m 429 1069 l 500 1351 l 718 1351 l 647 1069 l 429 1069 z "},"Ê":{"ha":1064,"x_min":81,"x_max":1004,"o":"m 1004 1000 l 1004 783 l 299 783 l 299 608 l 867 608 l 867 392 l 299 392 l 299 217 l 1004 217 l 1004 0 l 81 0 l 81 1000 l 1004 1000 m 506 1068 l 321 1068 l 474 1324 l 613 1324 l 765 1068 l 579 1068 l 540 1129 l 506 1068 z "},"Ë":{"ha":1064,"x_min":81,"x_max":1004,"o":"m 1004 1000 l 1004 783 l 299 783 l 299 608 l 867 608 l 867 392 l 299 392 l 299 217 l 1004 217 l 1004 0 l 81 0 l 81 1000 l 1004 1000 m 807 1283 l 807 1069 l 593 1069 l 593 1283 l 807 1283 m 510 1283 l 510 1069 l 297 1069 l 297 1283 l 510 1283 z "},"Ì":{"ha":306,"x_min":50,"x_max":349,"o":"m 132 0 l 132 1000 l 349 1000 l 349 0 l 132 0 m 268 1351 l 339 1069 l 121 1069 l 50 1351 l 268 1351 z "},"Í":{"ha":306,"x_min":50,"x_max":339,"o":"m 58 0 l 58 1000 l 275 1000 l 275 0 l 58 0 m 50 1069 l 121 1351 l 339 1351 l 268 1069 l 50 1069 z "},"Î":{"ha":306,"x_min":-17,"x_max":428,"o":"m 86 0 l 86 1000 l 303 1000 l 303 0 l 86 0 m 168 1068 l -17 1068 l 136 1324 l 275 1324 l 428 1068 l 242 1068 l 203 1129 l 168 1068 z "},"Ï":{"ha":306,"x_min":-40,"x_max":469,"o":"m 103 0 l 103 1000 l 319 1000 l 319 0 l 103 0 m 469 1283 l 469 1069 l 256 1069 l 256 1283 l 469 1283 m 172 1283 l 172 1069 l -40 1069 l -40 1283 l 172 1283 z "},"Ñ":{"ha":1156,"x_min":78,"x_max":1078,"o":"m 860 333 l 860 1000 l 1078 1000 l 1078 0 l 856 0 l 293 669 l 293 0 l 78 0 l 78 1000 l 300 1000 l 860 333 m 693 1235 q 826 1286 747 1235 l 826 1111 q 689 1075 740 1075 q 558 1118 638 1075 q 438 1161 478 1161 l 422 1161 q 306 1111 364 1161 l 306 1283 q 438 1321 400 1321 q 569 1281 489 1321 q 693 1235 650 1240 z "},"Ò":{"ha":1150,"x_min":75,"x_max":1075,"o":"m 281 1000 l 869 1000 q 1015 940 954 1000 q 1075 794 1075 879 l 1075 206 q 1015 60 1075 121 q 869 0 954 0 l 281 0 q 135 60 194 0 q 75 206 75 119 l 75 794 q 135 940 75 881 q 281 1000 194 1000 m 290 783 l 290 217 l 857 217 l 857 783 l 290 783 m 635 1351 l 706 1069 l 488 1069 l 417 1351 l 635 1351 z "},"Ó":{"ha":1150,"x_min":75,"x_max":1075,"o":"m 281 1000 l 869 1000 q 1015 940 954 1000 q 1075 794 1075 879 l 1075 206 q 1015 60 1075 121 q 869 0 954 0 l 281 0 q 135 60 194 0 q 75 206 75 119 l 75 794 q 135 940 75 881 q 281 1000 194 1000 m 290 783 l 290 217 l 857 217 l 857 783 l 290 783 m 472 1069 l 543 1351 l 761 1351 l 690 1069 l 472 1069 z "},"Ô":{"ha":1150,"x_min":75,"x_max":1075,"o":"m 281 1000 l 869 1000 q 1015 940 954 1000 q 1075 794 1075 879 l 1075 206 q 1015 60 1075 121 q 869 0 954 0 l 281 0 q 135 60 194 0 q 75 206 75 119 l 75 794 q 135 940 75 881 q 281 1000 194 1000 m 290 783 l 290 217 l 857 217 l 857 783 l 290 783 m 549 1068 l 364 1068 l 517 1324 l 656 1324 l 808 1068 l 622 1068 l 583 1129 l 549 1068 z "},"Õ":{"ha":1150,"x_min":75,"x_max":1075,"o":"m 281 1000 l 869 1000 q 1015 940 954 1000 q 1075 794 1075 879 l 1075 206 q 1015 60 1075 121 q 869 0 954 0 l 281 0 q 135 60 194 0 q 75 206 75 119 l 75 794 q 135 940 75 881 q 281 1000 194 1000 m 290 783 l 290 217 l 857 217 l 857 783 l 290 783 m 676 1235 q 810 1286 731 1235 l 810 1111 q 672 1075 724 1075 q 541 1118 621 1075 q 421 1161 461 1161 l 406 1161 q 289 1111 347 1161 l 289 1283 q 421 1321 383 1321 q 553 1281 472 1321 q 676 1235 633 1240 z "},"Ö":{"ha":1150,"x_min":75,"x_max":1075,"o":"m 281 1000 l 869 1000 q 1015 940 954 1000 q 1075 794 1075 879 l 1075 206 q 1015 60 1075 121 q 869 0 954 0 l 281 0 q 135 60 194 0 q 75 206 75 119 l 75 794 q 135 940 75 881 q 281 1000 194 1000 m 290 783 l 290 217 l 857 217 l 857 783 l 290 783 m 836 1283 l 836 1069 l 622 1069 l 622 1283 l 836 1283 m 539 1283 l 539 1069 l 326 1069 l 326 1283 l 539 1283 z "},"×":{"ha":758,"x_min":74,"x_max":704,"o":"m 704 717 l 704 647 l 524 417 l 704 183 l 704 114 l 483 114 l 388 243 q 339 177 374 221 q 292 114 304 133 l 74 114 l 74 183 l 253 417 l 74 647 l 74 717 l 293 717 l 388 586 l 483 717 l 704 717 z "},"Ù":{"ha":1150,"x_min":75,"x_max":1075,"o":"m 290 1000 l 290 217 l 857 217 l 857 1000 l 1075 1000 l 1075 206 q 1015 60 1075 121 q 869 0 954 0 l 281 0 q 135 60 194 0 q 75 206 75 119 l 75 1000 l 290 1000 m 635 1351 l 706 1069 l 488 1069 l 417 1351 l 635 1351 z "},"Ú":{"ha":1150,"x_min":75,"x_max":1075,"o":"m 290 1000 l 290 217 l 857 217 l 857 1000 l 1075 1000 l 1075 206 q 1015 60 1075 121 q 869 0 954 0 l 281 0 q 135 60 194 0 q 75 206 75 119 l 75 1000 l 290 1000 m 444 1069 l 515 1351 l 733 1351 l 663 1069 l 444 1069 z "},"Û":{"ha":1150,"x_min":75,"x_max":1075,"o":"m 290 1000 l 290 217 l 857 217 l 857 1000 l 1075 1000 l 1075 206 q 1015 60 1075 121 q 869 0 954 0 l 281 0 q 135 60 194 0 q 75 206 75 119 l 75 1000 l 290 1000 m 549 1068 l 364 1068 l 517 1324 l 656 1324 l 808 1068 l 622 1068 l 583 1129 l 549 1068 z "},"Ü":{"ha":1150,"x_min":75,"x_max":1075,"o":"m 290 1000 l 290 217 l 857 217 l 857 1000 l 1075 1000 l 1075 206 q 1015 60 1075 121 q 869 0 954 0 l 281 0 q 135 60 194 0 q 75 206 75 119 l 75 1000 l 290 1000 m 836 1283 l 836 1069 l 622 1069 l 622 1283 l 836 1283 m 539 1283 l 539 1069 l 326 1069 l 326 1283 l 539 1283 z "},"Ý":{"ha":1119,"x_min":24,"x_max":1167,"o":"m 907 1000 l 1167 1000 l 703 372 l 703 0 l 486 0 l 486 374 l 304 618 l 24 1000 l 281 1000 l 594 606 l 907 1000 m 457 1069 l 528 1351 l 746 1351 l 675 1069 l 457 1069 z "},"ß":{"ha":1157,"x_min":79,"x_max":1061,"o":"m 1061 815 l 1061 599 q 1038 503 1061 547 q 1061 408 1061 460 l 1061 201 q 1001 60 1061 119 q 858 0 942 0 l 379 0 l 379 213 l 849 213 l 849 396 l 379 396 l 379 596 l 849 596 l 849 767 l 292 767 l 292 0 l 79 0 l 79 779 q 139 922 79 863 q 282 981 199 981 l 858 981 q 991 933 933 981 q 1061 815 1049 886 z "},"à":{"ha":1007,"x_min":72,"x_max":889,"o":"m 688 806 q 830 746 771 806 q 889 604 889 686 l 889 0 l 274 0 q 131 60 190 0 q 72 201 72 119 l 72 510 l 676 510 l 676 593 l 72 593 l 72 806 l 688 806 m 676 213 l 676 324 l 285 324 l 285 213 l 676 213 m 576 1168 l 647 886 l 429 886 l 358 1168 l 576 1168 z "},"á":{"ha":1007,"x_min":72,"x_max":889,"o":"m 688 806 q 830 746 771 806 q 889 604 889 686 l 889 0 l 274 0 q 131 60 190 0 q 72 201 72 119 l 72 510 l 676 510 l 676 593 l 72 593 l 72 806 l 688 806 m 676 213 l 676 324 l 285 324 l 285 213 l 676 213 m 386 886 l 457 1168 l 675 1168 l 604 886 l 386 886 z "},"â":{"ha":1007,"x_min":72,"x_max":889,"o":"m 688 806 q 830 746 771 806 q 889 604 889 686 l 889 0 l 274 0 q 131 60 190 0 q 72 201 72 119 l 72 510 l 676 510 l 676 593 l 72 593 l 72 806 l 688 806 m 676 213 l 676 324 l 285 324 l 285 213 l 676 213 m 476 886 l 292 886 l 444 1142 l 583 1142 l 736 886 l 550 886 l 511 947 l 476 886 z "},"ã":{"ha":1007,"x_min":72,"x_max":889,"o":"m 688 806 q 830 746 771 806 q 889 604 889 686 l 889 0 l 274 0 q 131 60 190 0 q 72 201 72 119 l 72 510 l 676 510 l 676 593 l 72 593 l 72 806 l 688 806 m 676 213 l 676 324 l 285 324 l 285 213 l 676 213 m 576 1050 q 710 1101 631 1050 l 710 926 q 572 890 624 890 q 441 933 521 890 q 321 976 361 976 l 306 976 q 189 926 247 976 l 189 1099 q 321 1136 283 1136 q 453 1096 372 1136 q 576 1050 533 1056 z "},"ä":{"ha":1007,"x_min":72,"x_max":889,"o":"m 688 806 q 830 746 771 806 q 889 604 889 686 l 889 0 l 274 0 q 131 60 190 0 q 72 201 72 119 l 72 510 l 676 510 l 676 593 l 72 593 l 72 806 l 688 806 m 676 213 l 676 324 l 285 324 l 285 213 l 676 213 m 750 1100 l 750 886 l 536 886 l 536 1100 l 750 1100 m 453 1100 l 453 886 l 240 886 l 240 1100 l 453 1100 z "},"å":{"ha":1007,"x_min":72,"x_max":889,"o":"m 688 806 q 830 746 771 806 q 889 604 889 686 l 889 0 l 274 0 q 131 60 190 0 q 72 201 72 119 l 72 510 l 676 510 l 676 593 l 72 593 l 72 806 l 688 806 m 676 213 l 676 324 l 285 324 l 285 213 l 676 213 m 390 1165 l 461 1165 q 535 1134 504 1165 q 567 1060 567 1103 l 567 992 q 535 917 567 949 q 461 886 504 886 l 390 886 q 315 917 347 886 q 283 992 283 949 l 283 1060 q 315 1134 283 1103 q 390 1165 347 1165 m 390 1057 l 390 982 l 461 982 l 461 1057 l 390 1057 z "},"æ":{"ha":1636,"x_min":74,"x_max":1496,"o":"m 1296 806 q 1438 747 1379 806 q 1496 604 1496 688 l 1496 296 l 892 296 l 892 213 l 1496 213 l 1496 0 l 275 0 q 133 60 192 0 q 74 201 74 119 l 74 510 l 679 510 l 679 593 l 74 593 l 74 806 l 1296 806 m 679 213 l 679 324 l 286 324 l 286 213 l 679 213 m 892 482 l 1283 482 l 1283 593 l 892 593 l 892 482 z "},"ç":{"ha":963,"x_min":71,"x_max":888,"o":"m 283 213 l 888 213 l 888 0 l 569 0 q 542 -92 563 -33 q 515 -178 522 -150 l 381 -178 q 408 -86 388 -144 q 435 0 428 -28 l 272 0 q 131 60 190 0 q 71 201 71 119 l 71 604 q 131 746 71 686 q 272 806 190 806 l 886 806 l 886 593 l 283 593 l 283 213 z "},"è":{"ha":886,"x_min":71,"x_max":888,"o":"m 686 806 q 828 746 769 806 q 888 604 888 686 l 888 296 l 283 296 l 283 213 l 888 213 l 888 0 l 272 0 q 131 60 190 0 q 71 201 71 119 l 71 604 q 131 746 71 686 q 272 806 190 806 l 686 806 m 283 482 l 675 482 l 675 593 l 283 593 l 283 482 m 558 1168 l 629 886 l 411 886 l 340 1168 l 558 1168 z "},"é":{"ha":886,"x_min":71,"x_max":888,"o":"m 686 806 q 828 746 769 806 q 888 604 888 686 l 888 296 l 283 296 l 283 213 l 888 213 l 888 0 l 272 0 q 131 60 190 0 q 71 201 71 119 l 71 604 q 131 746 71 686 q 272 806 190 806 l 686 806 m 283 482 l 675 482 l 675 593 l 283 593 l 283 482 m 368 888 l 439 1169 l 657 1169 l 586 888 l 368 888 z "},"ê":{"ha":886,"x_min":71,"x_max":888,"o":"m 686 806 q 828 746 769 806 q 888 604 888 686 l 888 296 l 283 296 l 283 213 l 888 213 l 888 0 l 272 0 q 131 60 190 0 q 71 201 71 119 l 71 604 q 131 746 71 686 q 272 806 190 806 l 686 806 m 283 482 l 675 482 l 675 593 l 283 593 l 283 482 m 458 886 l 274 886 l 426 1142 l 565 1142 l 718 886 l 532 886 l 493 947 l 458 886 z "},"ë":{"ha":886,"x_min":71,"x_max":888,"o":"m 686 806 q 828 746 769 806 q 888 604 888 686 l 888 296 l 283 296 l 283 213 l 888 213 l 888 0 l 272 0 q 131 60 190 0 q 71 201 71 119 l 71 604 q 131 746 71 686 q 272 806 190 806 l 686 806 m 283 482 l 675 482 l 675 593 l 283 593 l 283 482 m 760 1100 l 760 886 l 546 886 l 546 1100 l 760 1100 m 463 1100 l 463 886 l 250 886 l 250 1100 l 463 1100 z "},"ì":{"ha":297,"x_min":22,"x_max":311,"o":"m 78 0 l 78 806 l 290 806 l 290 0 l 78 0 m 240 1169 l 311 888 l 93 888 l 22 1169 l 240 1169 z "},"í":{"ha":297,"x_min":68,"x_max":357,"o":"m 71 0 l 71 806 l 283 806 l 283 0 l 71 0 m 68 886 l 139 1168 l 357 1168 l 286 886 l 68 886 z "},"î":{"ha":297,"x_min":-21,"x_max":424,"o":"m 71 0 l 71 806 l 283 806 l 283 0 l 71 0 m 164 886 l -21 886 l 132 1142 l 271 1142 l 424 886 l 238 886 l 199 947 l 164 886 z "},"ï":{"ha":297,"x_min":-44,"x_max":465,"o":"m 76 0 l 76 806 l 289 806 l 289 0 l 76 0 m 465 1103 l 465 889 l 251 889 l 251 1103 l 465 1103 m 168 1103 l 168 889 l -44 889 l -44 1103 l 168 1103 z "},"ñ":{"ha":983,"x_min":75,"x_max":892,"o":"m 690 806 q 833 746 774 806 q 892 604 892 686 l 892 0 l 679 0 l 679 593 l 288 593 l 288 0 l 75 0 l 75 806 l 690 806 m 579 1049 q 713 1100 633 1049 l 713 925 q 575 889 626 889 q 444 932 524 889 q 324 975 364 975 l 308 975 q 192 925 250 975 l 192 1097 q 324 1135 286 1135 q 456 1094 375 1135 q 579 1049 536 1054 z "},"ò":{"ha":961,"x_min":71,"x_max":888,"o":"m 272 806 l 686 806 q 828 746 769 806 q 888 604 888 686 l 888 201 q 828 60 888 119 q 686 0 769 0 l 272 0 q 131 60 190 0 q 71 201 71 119 l 71 604 q 131 746 71 686 q 272 806 190 806 m 283 593 l 283 213 l 675 213 l 675 593 l 283 593 m 554 1169 l 625 888 l 407 888 l 336 1169 l 554 1169 z "},"ó":{"ha":961,"x_min":71,"x_max":888,"o":"m 272 806 l 686 806 q 828 746 769 806 q 888 604 888 686 l 888 201 q 828 60 888 119 q 686 0 769 0 l 272 0 q 131 60 190 0 q 71 201 71 119 l 71 604 q 131 746 71 686 q 272 806 190 806 m 283 593 l 283 213 l 675 213 l 675 593 l 283 593 m 364 888 l 435 1169 l 653 1169 l 582 888 l 364 888 z "},"ô":{"ha":961,"x_min":71,"x_max":888,"o":"m 272 806 l 686 806 q 828 746 769 806 q 888 604 888 686 l 888 201 q 828 60 888 119 q 686 0 769 0 l 272 0 q 131 60 190 0 q 71 201 71 119 l 71 604 q 131 746 71 686 q 272 806 190 806 m 283 593 l 283 213 l 675 213 l 675 593 l 283 593 m 454 886 l 269 886 l 422 1142 l 561 1142 l 714 886 l 528 886 l 489 947 l 454 886 z "},"õ":{"ha":961,"x_min":71,"x_max":888,"o":"m 272 806 l 686 806 q 828 746 769 806 q 888 604 888 686 l 888 201 q 828 60 888 119 q 686 0 769 0 l 272 0 q 131 60 190 0 q 71 201 71 119 l 71 604 q 131 746 71 686 q 272 806 190 806 m 283 593 l 283 213 l 675 213 l 675 593 l 283 593 m 582 1049 q 715 1100 636 1049 l 715 925 q 578 889 629 889 q 447 932 526 889 q 326 975 367 975 l 311 975 q 194 925 253 975 l 194 1097 q 326 1135 289 1135 q 458 1094 378 1135 q 582 1049 539 1054 z "},"ö":{"ha":961,"x_min":71,"x_max":888,"o":"m 272 806 l 686 806 q 828 746 769 806 q 888 604 888 686 l 888 201 q 828 60 888 119 q 686 0 769 0 l 272 0 q 131 60 190 0 q 71 201 71 119 l 71 604 q 131 746 71 686 q 272 806 190 806 m 283 593 l 283 213 l 675 213 l 675 593 l 283 593 m 742 1103 l 742 889 l 528 889 l 528 1103 l 742 1103 m 444 1103 l 444 889 l 232 889 l 232 1103 l 444 1103 z "},"÷":{"ha":721,"x_min":10,"x_max":690,"o":"m 690 546 l 690 333 l 10 333 l 10 546 l 690 546 m 254 213 l 467 213 l 467 0 l 254 0 l 254 213 m 467 856 l 467 642 l 254 642 l 254 856 l 467 856 z "},"ù":{"ha":965,"x_min":74,"x_max":890,"o":"m 678 806 l 890 806 l 890 201 q 831 60 890 119 q 689 0 772 0 l 275 0 q 133 60 192 0 q 74 201 74 119 l 74 806 l 286 806 l 286 213 l 678 213 l 678 806 m 542 1169 l 613 888 l 394 888 l 324 1169 l 542 1169 z "},"ú":{"ha":965,"x_min":74,"x_max":890,"o":"m 678 806 l 890 806 l 890 201 q 831 60 890 119 q 689 0 772 0 l 275 0 q 133 60 192 0 q 74 201 74 119 l 74 806 l 286 806 l 286 213 l 678 213 l 678 806 m 379 888 l 450 1169 l 668 1169 l 597 888 l 379 888 z "},"û":{"ha":965,"x_min":74,"x_max":890,"o":"m 678 806 l 890 806 l 890 201 q 831 60 890 119 q 689 0 772 0 l 275 0 q 133 60 192 0 q 74 201 74 119 l 74 806 l 286 806 l 286 213 l 678 213 l 678 806 m 442 888 l 257 888 l 410 1143 l 549 1143 l 701 888 l 515 888 l 476 949 l 442 888 z "},"ü":{"ha":965,"x_min":74,"x_max":890,"o":"m 678 806 l 890 806 l 890 201 q 831 60 890 119 q 689 0 772 0 l 275 0 q 133 60 192 0 q 74 201 74 119 l 74 806 l 286 806 l 286 213 l 678 213 l 678 806 m 757 1100 l 757 886 l 543 886 l 543 1100 l 757 1100 m 460 1100 l 460 886 l 247 886 l 247 1100 l 460 1100 z "},"ý":{"ha":956,"x_min":58,"x_max":876,"o":"m 876 -87 q 817 -230 876 -171 q 675 -289 758 -289 l 186 -289 l 186 -75 l 664 -75 l 664 0 l 261 0 q 118 60 178 0 q 58 201 58 119 l 58 803 l 271 803 l 271 213 l 664 213 l 664 803 l 876 803 l 876 -87 m 375 888 l 446 1169 l 664 1169 l 593 888 l 375 888 z "},"ÿ":{"ha":956,"x_min":58,"x_max":876,"o":"m 876 -87 q 817 -230 876 -171 q 675 -289 758 -289 l 186 -289 l 186 -75 l 664 -75 l 664 0 l 261 0 q 118 60 178 0 q 58 201 58 119 l 58 803 l 271 803 l 271 213 l 664 213 l 664 803 l 876 803 l 876 -87 m 753 1103 l 753 889 l 539 889 l 539 1103 l 753 1103 m 456 1103 l 456 889 l 243 889 l 243 1103 l 456 1103 z "},"ı":{"ha":297,"x_min":72,"x_max":285,"o":"m 72 0 l 72 806 l 285 806 l 285 0 l 72 0 z "},"Œ":{"ha":1908,"x_min":74,"x_max":1781,"o":"m 1074 783 l 1074 608 l 1642 608 l 1642 392 l 1074 392 l 1074 217 l 1781 217 l 1781 0 l 279 0 q 134 60 194 0 q 74 206 74 121 l 74 794 q 134 940 74 879 q 279 1000 194 1000 l 1781 1000 l 1781 783 l 1074 783 m 292 783 l 292 217 l 858 217 l 858 783 l 292 783 z "},"œ":{"ha":1635,"x_min":72,"x_max":1494,"o":"m 1494 296 l 890 296 l 890 213 l 1494 213 l 1494 0 l 275 0 q 132 60 192 0 q 72 201 72 119 l 72 604 q 132 746 72 686 q 275 806 192 806 l 1294 806 q 1436 747 1378 806 q 1494 604 1494 688 l 1494 296 m 890 482 l 1282 482 l 1282 593 l 890 593 l 890 482 m 285 593 l 285 213 l 678 213 l 678 593 l 285 593 z "},"Š":{"ha":1142,"x_min":71,"x_max":1071,"o":"m 1071 794 l 1071 701 l 853 701 l 853 783 l 286 783 l 286 608 l 865 608 q 1010 548 950 608 q 1071 403 1071 488 l 1071 206 q 1010 60 1071 121 q 865 0 950 0 l 276 0 q 131 60 192 0 q 71 206 71 119 l 71 299 l 286 299 l 286 217 l 853 217 l 853 392 l 276 392 q 131 451 192 392 q 71 597 71 511 l 71 794 q 131 940 71 881 q 276 1000 192 1000 l 865 1000 q 1010 940 950 1000 q 1071 794 1071 879 m 360 1324 l 542 1324 l 579 1263 l 617 1324 l 804 1324 l 651 1068 l 513 1068 l 360 1324 z "},"š":{"ha":954,"x_min":67,"x_max":885,"o":"m 885 604 l 885 564 l 671 564 l 671 593 l 279 593 l 279 510 l 682 510 q 826 451 767 510 q 885 308 885 392 l 885 201 q 826 60 885 119 q 682 0 767 0 l 268 0 q 126 60 186 0 q 67 201 67 119 l 67 242 l 279 242 l 279 213 l 671 213 l 671 296 l 268 296 q 126 356 186 296 q 67 497 67 415 l 67 604 q 126 746 67 686 q 268 806 186 806 l 682 806 q 826 746 767 806 q 885 604 885 686 m 265 1142 l 447 1142 l 485 1081 l 522 1142 l 710 1142 l 557 886 l 418 886 l 265 1142 z "},"Ÿ":{"ha":1119,"x_min":24,"x_max":1167,"o":"m 907 1000 l 1167 1000 l 703 372 l 703 0 l 486 0 l 486 374 l 304 618 l 24 1000 l 281 1000 l 594 606 l 907 1000 m 849 1283 l 849 1069 l 635 1069 l 635 1283 l 849 1283 m 551 1283 l 551 1069 l 339 1069 l 339 1283 l 551 1283 z "},"Ž":{"ha":1140,"x_min":71,"x_max":1071,"o":"m 71 783 l 71 1000 l 1071 1000 l 1071 779 l 401 217 l 1071 217 l 1071 0 l 71 0 l 71 221 l 740 783 l 71 783 m 358 1324 l 540 1324 l 578 1263 l 615 1324 l 803 1324 l 650 1068 l 511 1068 l 358 1324 z "},"ž":{"ha":969,"x_min":75,"x_max":892,"o":"m 75 593 l 75 806 l 892 806 l 892 588 l 407 213 l 892 213 l 892 0 l 75 0 l 75 218 l 560 593 l 75 593 m 274 1160 l 456 1160 l 493 1099 l 531 1160 l 718 1160 l 565 904 l 426 904 l 274 1160 z "},"ˆ":{"ha":417,"x_min":39,"x_max":483,"o":"m 224 1036 l 39 1036 l 192 1292 l 331 1292 l 483 1036 l 297 1036 l 258 1097 l 224 1036 z "},"ˇ":{"ha":413,"x_min":38,"x_max":482,"o":"m 38 1292 l 219 1292 l 257 1231 l 294 1292 l 482 1292 l 329 1036 l 190 1036 l 38 1292 z "},"˘":{"ha":399,"x_min":56,"x_max":392,"o":"m 251 1222 l 392 1222 l 392 1174 q 353 1078 392 1118 q 256 1038 314 1038 l 192 1038 q 94 1078 133 1038 q 56 1174 56 1118 l 56 1222 l 197 1222 l 197 1181 l 251 1181 l 251 1222 z "},"˙":{"ha":324,"x_min":63,"x_max":321,"o":"m 169 1293 l 214 1293 q 289 1262 257 1293 q 321 1188 321 1231 l 321 1144 q 289 1070 321 1101 q 214 1039 257 1039 l 169 1039 q 94 1070 126 1039 q 63 1144 63 1101 l 63 1188 q 94 1262 63 1231 q 169 1293 126 1293 z "},"˚":{"ha":324,"x_min":13,"x_max":296,"o":"m 119 1318 l 190 1318 q 265 1287 233 1318 q 296 1213 296 1256 l 296 1144 q 265 1070 296 1101 q 190 1039 233 1039 l 119 1039 q 44 1070 76 1039 q 13 1144 13 1101 l 13 1213 q 44 1287 13 1256 q 119 1318 76 1318 m 119 1210 l 119 1135 l 190 1135 l 190 1210 l 119 1210 z "},"˜":{"ha":560,"x_min":32,"x_max":553,"o":"m 419 1203 q 553 1254 474 1203 l 553 1079 q 415 1043 467 1043 q 284 1086 364 1043 q 164 1129 204 1129 l 149 1129 q 32 1079 90 1129 l 32 1251 q 164 1289 125 1289 q 297 1249 217 1289 q 419 1203 376 1208 z "},"–":{"ha":983,"x_min":75,"x_max":906,"o":"m 906 515 l 906 303 l 75 303 l 75 515 l 906 515 z "},"—":{"ha":1142,"x_min":75,"x_max":1050,"o":"m 1050 515 l 1050 303 l 75 303 l 75 515 l 1050 515 z "},"‘":{"ha":333,"x_min":47,"x_max":260,"o":"m 260 607 l 47 607 l 47 782 q 108 916 47 858 q 260 989 168 974 l 260 607 z "},"’":{"ha":331,"x_min":75,"x_max":288,"o":"m 75 981 l 288 981 l 288 807 q 227 674 288 732 q 75 600 167 615 l 75 981 z "},"“":{"ha":647,"x_min":63,"x_max":574,"o":"m 275 607 l 63 607 l 63 782 q 124 916 63 858 q 275 989 185 974 l 275 607 m 574 608 l 361 608 l 361 783 q 422 917 361 860 q 574 990 482 975 l 574 608 z "},"”":{"ha":647,"x_min":75,"x_max":586,"o":"m 372 981 l 586 981 l 586 807 q 525 674 586 732 q 372 600 464 615 l 372 981 m 75 981 l 288 981 l 288 807 q 227 674 288 732 q 75 600 167 615 l 75 981 z "},"•":{"ha":515,"x_min":150,"x_max":364,"o":"m 242 594 l 271 594 q 364 503 364 594 l 364 478 q 271 388 364 388 l 242 388 q 150 478 150 388 l 150 503 q 242 594 150 594 z "},"…":{"ha":797,"x_min":75,"x_max":821,"o":"m 556 213 l 556 0 l 342 0 l 342 213 l 556 213 m 821 213 l 821 0 l 608 0 l 608 213 l 821 213 m 289 213 l 289 0 l 75 0 l 75 213 l 289 213 z "},"€":{"ha":1110,"x_min":49,"x_max":1026,"o":"m 386 260 l 386 213 l 1026 213 l 1026 0 l 375 0 q 233 60 292 0 q 174 201 174 119 l 174 260 l 49 260 l 49 472 l 174 472 l 174 521 l 49 521 l 49 733 l 174 733 l 174 799 q 233 941 174 882 q 375 1000 292 1000 l 1026 1000 l 1026 788 l 386 788 l 386 733 l 890 733 l 890 521 l 386 521 l 386 472 l 890 472 l 890 260 l 386 260 z "},"−":{"ha":718,"x_min":82,"x_max":661,"o":"m 661 517 l 661 304 l 82 304 l 82 517 l 661 517 z "},"":{"ha":0,"x_min":0,"x_max":0,"o":""},"":{"ha":1071,"x_min":64,"x_max":1046,"o":"m 64 1000 l 1046 1000 l 1046 931 l 281 0 l 64 0 l 64 71 l 650 788 l 64 788 l 64 1000 z "},"":{"ha":1089,"x_min":17,"x_max":999,"o":"m 219 999 l 797 999 q 940 939 881 999 q 999 796 999 879 l 999 0 l 786 0 l 786 389 l 219 389 q 76 448 136 389 q 17 590 17 507 l 17 796 q 76 939 17 879 q 219 999 136 999 m 786 601 l 786 785 l 231 785 l 231 601 l 786 601 z "},"":{"ha":1132,"x_min":68,"x_max":1049,"o":"m 1049 629 l 892 549 l 282 213 l 1049 213 l 1049 0 l 268 0 q 142 44 197 0 q 69 157 86 89 l 68 343 l 835 758 l 835 786 l 282 786 l 282 690 l 68 690 l 68 797 q 128 940 68 881 q 271 999 188 999 l 849 999 q 980 951 924 999 q 1049 833 1036 904 l 1049 629 z "},"":{"ha":926,"x_min":38,"x_max":890,"o":"m 236 1000 l 689 1000 q 831 941 771 1000 q 890 799 890 882 l 890 568 q 831 425 890 485 q 689 365 771 365 l 461 365 l 461 264 l 247 264 l 247 378 q 307 520 247 461 q 449 579 367 579 l 678 579 l 678 788 l 250 788 l 250 651 l 38 651 l 38 832 q 105 951 49 903 q 236 1000 161 1000 m 461 0 l 247 0 l 247 213 l 461 213 l 461 0 z "},"":{"ha":1004,"x_min":13,"x_max":957,"o":"m 824 460 l 957 460 l 957 246 l 824 246 l 824 0 l 611 0 l 611 246 l 13 246 l 13 433 l 493 997 l 685 997 l 685 882 l 301 460 l 611 460 l 611 647 l 824 647 l 824 460 z "},"":{"ha":1075,"x_min":75,"x_max":1057,"o":"m 75 1000 l 288 1000 l 288 325 l 840 1000 l 1057 1000 l 1057 911 l 293 0 l 75 0 l 75 1000 z "},"":{"ha":1075,"x_min":0,"x_max":981,"o":"m 0 0 l 0 69 l 763 1000 l 981 1000 l 981 0 l 767 0 l 767 242 l 419 242 l 217 0 l 0 0 m 767 654 l 597 454 l 767 454 l 767 654 z "},"":{"ha":1075,"x_min":75,"x_max":1057,"o":"m 75 1000 l 293 1000 l 1057 69 l 1057 0 l 839 0 l 635 242 l 288 242 l 288 0 l 75 0 l 75 1000 m 288 654 l 288 454 l 457 454 l 288 654 z "}}}
